<mxfile host="Electron" modified="2025-09-02T21:30:40.184Z" agent="Mozilla/5.0 (Windows NT 10.0; Win64; x64) AppleWebKit/537.36 (KHTML, like Gecko) draw.io/24.0.4 Chrome/120.0.6099.109 Electron/28.1.0 Safari/537.36" etag="9c5tuZlHctj8wKB7N9zU" version="24.0.4" type="device">
  <diagram name="ORCA Main Features" id="main-features">
    <mxGraphModel dx="1674" dy="844" grid="1" gridSize="10" guides="1" tooltips="1" connect="1" arrows="1" fold="1" page="1" pageScale="1" pageWidth="1169" pageHeight="827" math="0" shadow="0">
      <root>
        <mxCell id="0" />
        <mxCell id="1" parent="0" />
        <mxCell id="title" value="🎼 ORCA Orchestrator - Main Features &amp; Components" style="text;html=1;strokeColor=none;fillColor=none;align=center;verticalAlign=middle;whiteSpace=wrap;rounded=0;fontSize=24;fontStyle=1;fontColor=#1f4e79;" parent="1" vertex="1">
          <mxGeometry x="200" y="20" width="769" height="40" as="geometry" />
        </mxCell>
        <mxCell id="orca-core" value="🎼 ORCA Orchestrator&lt;br&gt;&lt;br&gt;🧠 Master Controller&lt;br&gt;📋 Sequential Execution&lt;br&gt;🔄 Iterative Processing&lt;br&gt;📊 State Tracking" style="rounded=1;whiteSpace=wrap;html=1;fillColor=#d5e8d4;strokeColor=#82b366;fontSize=14;fontStyle=1;align=center;verticalAlign=middle;" parent="1" vertex="1">
          <mxGeometry x="450" y="100" width="280" height="120" as="geometry" />
        </mxCell>
        <mxCell id="logger" value="📝 OrcaLogger&lt;br&gt;&lt;br&gt;• Centralized Logging&lt;br&gt;• File &amp;amp; Console Output&lt;br&gt;• Timestamped Files" style="rounded=1;whiteSpace=wrap;html=1;fillColor=#fff2cc;strokeColor=#d6b656;fontSize=12;align=center;verticalAlign=top;" parent="1" vertex="1">
          <mxGeometry x="80" y="280" width="160" height="100" as="geometry" />
        </mxCell>
        <mxCell id="databank" value="💾 OrcaDatabank&lt;br&gt;&lt;br&gt;• Local File Operations&lt;br&gt;• Zip/Unzip Management&lt;br&gt;• Input Data Copying" style="rounded=1;whiteSpace=wrap;html=1;fillColor=#fff2cc;strokeColor=#d6b656;fontSize=12;align=center;verticalAlign=top;" parent="1" vertex="1">
          <mxGeometry x="280" y="280" width="160" height="100" as="geometry" />
        </mxCell>
        <mxCell id="filesync" value="☁️ OrcaFileSync&lt;br&gt;&lt;br&gt;• Cloud Synchronization&lt;br&gt;• Azure Data Lake Storage&lt;br&gt;• Upload/Download" style="rounded=1;whiteSpace=wrap;html=1;fillColor=#fff2cc;strokeColor=#d6b656;fontSize=12;align=center;verticalAlign=top;" parent="1" vertex="1">
          <mxGeometry x="480" y="280" width="160" height="100" as="geometry" />
        </mxCell>
        <mxCell id="state" value="🏃 OrcaState&lt;br&gt;&lt;br&gt;• Iteration Tracking&lt;br&gt;• Progress Management&lt;br&gt;• Resume Capability" style="rounded=1;whiteSpace=wrap;html=1;fillColor=#fff2cc;strokeColor=#d6b656;fontSize=12;align=center;verticalAlign=top;" parent="1" vertex="1">
          <mxGeometry x="680" y="280" width="160" height="100" as="geometry" />
        </mxCell>
        <mxCell id="orchestrator" value="🎯 OrcaOrchestrator&lt;br&gt;&lt;br&gt;• Main Workflow&lt;br&gt;• Configuration Management&lt;br&gt;• Error Handling" style="rounded=1;whiteSpace=wrap;html=1;fillColor=#fff2cc;strokeColor=#d6b656;fontSize=12;align=center;verticalAlign=top;" parent="1" vertex="1">
          <mxGeometry x="880" y="280" width="160" height="100" as="geometry" />
        </mxCell>
        <mxCell id="features-title" value="🌟 Key Features" style="text;html=1;strokeColor=none;fillColor=none;align=center;verticalAlign=middle;whiteSpace=wrap;rounded=0;fontSize=18;fontStyle=1;fontColor=#1f4e79;" parent="1" vertex="1">
          <mxGeometry x="80" y="420" width="200" height="30" as="geometry" />
        </mxCell>
        <mxCell id="feature1" value="🔄 Multi-Component Integration&lt;br&gt;• ActivitySim&lt;div&gt;• PopSim&lt;/div&gt;&lt;div&gt;• CVM&lt;/div&gt;&lt;div&gt;• Quetzal&lt;/div&gt;" style="rounded=1;whiteSpace=wrap;html=1;fillColor=#e1d5e7;strokeColor=#9673a6;fontSize=11;align=center;verticalAlign=top;" parent="1" vertex="1">
          <mxGeometry x="80" y="460" width="200" height="80" as="geometry" />
        </mxCell>
        <mxCell id="feature2" value="🌍 Two Operation Modes&lt;br&gt;• 🏠 Local Testing&lt;br&gt;• ☁️ Cloud Production" style="rounded=1;whiteSpace=wrap;html=1;fillColor=#e1d5e7;strokeColor=#9673a6;fontSize=11;align=center;verticalAlign=top;" parent="1" vertex="1">
          <mxGeometry x="320" y="460" width="200" height="80" as="geometry" />
        </mxCell>
        <mxCell id="feature3" value="⚙️ Highly Configurable&lt;br&gt;• YAML Configuration&lt;br&gt;• Environment Variables&lt;br&gt;• Command-line Overrides" style="rounded=1;whiteSpace=wrap;html=1;fillColor=#e1d5e7;strokeColor=#9673a6;fontSize=11;align=center;verticalAlign=top;" parent="1" vertex="1">
          <mxGeometry x="560" y="460" width="200" height="80" as="geometry" />
        </mxCell>
        <mxCell id="feature4" value="🔧 Smart Data Management&lt;br&gt;• Shared Input Data&lt;br&gt;• Output Archiving&lt;br&gt;• Conflict Resolution" style="rounded=1;whiteSpace=wrap;html=1;fillColor=#e1d5e7;strokeColor=#9673a6;fontSize=11;align=center;verticalAlign=top;" parent="1" vertex="1">
          <mxGeometry x="800" y="460" width="200" height="80" as="geometry" />
        </mxCell>
        <mxCell id="models-title" value="🚀 Supported Model Components" style="text;html=1;strokeColor=none;fillColor=none;align=center;verticalAlign=middle;whiteSpace=wrap;rounded=0;fontSize=18;fontStyle=1;fontColor=#1f4e79;" parent="1" vertex="1">
          <mxGeometry x="80" y="580" width="300" height="30" as="geometry" />
        </mxCell>
        <mxCell id="popsim" value="👥 PopSim&lt;br&gt;Population Synthesis" style="rounded=1;whiteSpace=wrap;html=1;fillColor=#dae8fc;strokeColor=#6c8ebf;fontSize=12;align=center;verticalAlign=middle;" parent="1" vertex="1">
          <mxGeometry x="80" y="620" width="120" height="60" as="geometry" />
        </mxCell>
        <mxCell id="activitysim" value="🎯 ActivitySim&lt;br&gt;Travel Demand Model" style="rounded=1;whiteSpace=wrap;html=1;fillColor=#dae8fc;strokeColor=#6c8ebf;fontSize=12;align=center;verticalAlign=middle;" parent="1" vertex="1">
          <mxGeometry x="220" y="620" width="120" height="60" as="geometry" />
        </mxCell>
        <mxCell id="cvm" value="🚛 CVM&lt;br&gt;Commercial Vehicle Model" style="rounded=1;whiteSpace=wrap;html=1;fillColor=#dae8fc;strokeColor=#6c8ebf;fontSize=12;align=center;verticalAlign=middle;" parent="1" vertex="1">
          <mxGeometry x="360" y="620" width="120" height="60" as="geometry" />
        </mxCell>
        <mxCell id="quetzal" value="🌐 Quetzal&lt;br&gt;Traffic &amp; Transit Assignment" style="rounded=1;whiteSpace=wrap;html=1;fillColor=#dae8fc;strokeColor=#6c8ebf;fontSize=12;align=center;verticalAlign=middle;" parent="1" vertex="1">
          <mxGeometry x="500" y="620" width="120" height="60" as="geometry" />
        </mxCell>
        <mxCell id="dataflow-title" value="📁 Data Management Types" style="text;html=1;strokeColor=none;fillColor=none;align=center;verticalAlign=middle;whiteSpace=wrap;rounded=0;fontSize=18;fontStyle=1;fontColor=#1f4e79;" parent="1" vertex="1">
          <mxGeometry x="680" y="580" width="250" height="30" as="geometry" />
        </mxCell>
        <mxCell id="shared-data" value="🔗 Shared Input Data&lt;br&gt;Landuse, Networks, etc." style="rounded=1;whiteSpace=wrap;html=1;fillColor=#f8cecc;strokeColor=#b85450;fontSize=12;align=center;verticalAlign=middle;" parent="1" vertex="1">
          <mxGeometry x="680" y="620" width="120" height="60" as="geometry" />
        </mxCell>
        <mxCell id="outputs" value="📦 Output Archives&lt;br&gt;Zipped Results" style="rounded=1;whiteSpace=wrap;html=1;fillColor=#f8cecc;strokeColor=#b85450;fontSize=12;align=center;verticalAlign=middle;" parent="1" vertex="1">
          <mxGeometry x="820" y="620" width="120" height="60" as="geometry" />
        </mxCell>
        <mxCell id="configs" value="⚙️ Configuration Files&lt;br&gt;YAML &amp; State JSON" style="rounded=1;whiteSpace=wrap;html=1;fillColor=#f8cecc;strokeColor=#b85450;fontSize=12;align=center;verticalAlign=middle;" parent="1" vertex="1">
          <mxGeometry x="960" y="620" width="120" height="60" as="geometry" />
        </mxCell>
        <mxCell id="arrow1" style="endArrow=classic;html=1;rounded=0;entryX=0.5;entryY=0;entryDx=0;entryDy=0;exitX=0.2;exitY=1;exitDx=0;exitDy=0;" parent="1" source="orca-core" target="logger" edge="1">
          <mxGeometry width="50" height="50" relative="1" as="geometry">
            <mxPoint x="500" y="250" as="sourcePoint" />
            <mxPoint x="550" y="200" as="targetPoint" />
          </mxGeometry>
        </mxCell>
        <mxCell id="arrow2" style="endArrow=classic;html=1;rounded=0;entryX=0.5;entryY=0;entryDx=0;entryDy=0;exitX=0.4;exitY=1;exitDx=0;exitDy=0;" parent="1" source="orca-core" target="databank" edge="1">
          <mxGeometry width="50" height="50" relative="1" as="geometry">
            <mxPoint x="500" y="250" as="sourcePoint" />
            <mxPoint x="550" y="200" as="targetPoint" />
          </mxGeometry>
        </mxCell>
        <mxCell id="arrow3" style="endArrow=classic;html=1;rounded=0;entryX=0.5;entryY=0;entryDx=0;entryDy=0;exitX=0.5;exitY=1;exitDx=0;exitDy=0;" parent="1" source="orca-core" target="filesync" edge="1">
          <mxGeometry width="50" height="50" relative="1" as="geometry">
            <mxPoint x="500" y="250" as="sourcePoint" />
            <mxPoint x="550" y="200" as="targetPoint" />
          </mxGeometry>
        </mxCell>
        <mxCell id="arrow4" style="endArrow=classic;html=1;rounded=0;entryX=0.5;entryY=0;entryDx=0;entryDy=0;exitX=0.6;exitY=1;exitDx=0;exitDy=0;" parent="1" source="orca-core" target="state" edge="1">
          <mxGeometry width="50" height="50" relative="1" as="geometry">
            <mxPoint x="500" y="250" as="sourcePoint" />
            <mxPoint x="550" y="200" as="targetPoint" />
          </mxGeometry>
        </mxCell>
        <mxCell id="arrow5" style="endArrow=classic;html=1;rounded=0;entryX=0.5;entryY=0;entryDx=0;entryDy=0;exitX=0.8;exitY=1;exitDx=0;exitDy=0;" parent="1" source="orca-core" target="orchestrator" edge="1">
          <mxGeometry width="50" height="50" relative="1" as="geometry">
            <mxPoint x="500" y="250" as="sourcePoint" />
            <mxPoint x="550" y="200" as="targetPoint" />
          </mxGeometry>
        </mxCell>
      </root>
    </mxGraphModel>
  </diagram>
</mxfile>
